# 3ds Max Wavefront OBJ Exporter v0.99 - (c)2007 guruware
# File Created: 13.04.2023 09:40:10

mtllib Stairs.mtl

#
# object Box001
#

v  -37.4043 0.0000 24.4054
v  -37.4043 0.0000 14.3644
v  -34.5653 0.0000 14.3644
v  -34.5653 0.0000 24.4054
v  -31.7263 0.0000 14.3644
v  -31.7263 0.0000 24.4054
v  -28.8874 0.0000 14.3644
v  -28.8874 0.0000 24.4054
v  -26.0484 0.0000 14.3644
v  -26.0484 0.0000 24.4054
v  -23.2095 0.0000 14.3644
v  -23.2095 0.0000 24.4054
v  -37.4043 0.0000 4.3234
v  -34.5653 0.0000 4.3234
v  -31.7263 0.0000 4.3234
v  -28.8874 0.0000 4.3234
v  -26.0484 0.0000 4.3234
v  -23.2095 0.0000 4.3234
v  -37.4043 0.0000 -5.7176
v  -34.5653 0.0000 -5.7176
v  -31.7263 0.0000 -5.7176
v  -28.8874 0.0000 -5.7176
v  -26.0484 0.0000 -5.7176
v  -23.2095 0.0000 -5.7176
v  -37.4043 0.0000 -15.7586
v  -34.5653 0.0000 -15.7586
v  -31.7263 0.0000 -15.7586
v  -28.8874 0.0000 -15.7586
v  -26.0484 0.0000 -15.7586
v  -23.2095 0.0000 -15.7586
v  -37.4043 8.6785 24.4054
v  -34.5653 8.6785 24.4054
v  -34.5653 8.6785 14.3644
v  -37.4043 8.6785 14.3644
v  -31.7263 8.6785 24.4054
v  -31.7263 8.6785 14.3644
v  -28.8874 8.6785 24.4054
v  -28.8874 8.6785 14.3644
v  -26.0484 8.6785 24.4054
v  -26.0484 8.6785 14.3644
v  -23.2095 8.6785 24.4054
v  -23.2095 8.6785 14.3644
v  -34.5653 8.6785 4.3234
v  -37.4043 8.6785 4.3234
v  -31.7263 8.6785 4.3234
v  -28.8874 8.6785 4.3234
v  -26.0484 8.6785 4.3234
v  -23.2095 8.6785 4.3234
v  -34.5653 8.6785 -5.7176
v  -37.4043 8.6785 -5.7176
v  -31.7263 8.6785 -5.7176
v  -28.8874 8.6785 -5.7176
v  -26.0484 8.6785 -5.7176
v  -23.2095 8.6785 -5.7176
v  -34.5653 8.6785 -15.7586
v  -37.4043 8.6785 -15.7586
v  -31.7263 8.6785 -15.7586
v  -28.8874 8.6785 -15.7586
v  -26.0484 8.6785 -15.7586
v  -23.2095 8.6785 -15.7586
v  -34.5653 4.3392 24.4054
v  -37.4043 4.3392 24.4054
v  -31.7263 4.3392 24.4054
v  -28.8874 4.3392 24.4054
v  -26.0484 4.3392 24.4054
v  -23.2095 4.3392 24.4054
v  -23.2095 4.3392 14.3644
v  -23.2095 4.3392 4.3234
v  -23.2095 4.3392 -5.7176
v  -23.2095 4.3392 -15.7586
v  -26.0484 4.3392 -15.7586
v  -28.8874 4.3392 -15.7586
v  -31.7263 4.3392 -15.7586
v  -34.5653 4.3392 -15.7586
v  -37.4043 4.3392 -15.7586
v  -52.2325 0.0000 -15.7586
v  -52.2325 0.0000 -5.7176
v  -52.2325 4.3392 -5.7176
v  -52.2325 4.3392 -15.7586
v  -52.2325 0.0000 4.3234
v  -52.2325 4.3392 4.3234
v  -52.2325 0.0000 14.3644
v  -52.2325 4.3392 14.3644
v  -52.2325 0.0000 24.4054
v  -52.2325 4.3392 24.4054
v  -52.2325 8.6785 -5.7176
v  -52.2325 8.6785 -15.7586
v  -52.2325 8.6785 4.3234
v  -52.2325 8.6785 14.3644
v  -52.2325 8.6785 24.4054
v  -37.4043 16.1688 24.4054
v  -37.4043 16.1688 14.3644
v  -52.2325 16.1688 14.3644
v  -52.2325 16.1688 24.4054
v  -37.4043 16.1688 4.3234
v  -52.2325 16.1688 4.3234
v  -37.4043 16.1688 -5.7176
v  -52.2325 16.1688 -5.7176
v  -37.4043 16.1688 -15.7586
v  -52.2325 16.1688 -15.7586
# 100 vertices

vn 0.0000 -0.7071 0.7071
vn 0.0000 -1.0000 -0.0000
vn 0.7071 -0.7071 -0.0000
vn 0.5774 -0.5774 0.5774
vn 0.0000 -0.7071 -0.7071
vn 0.5774 -0.5774 -0.5774
vn 0.3015 0.3015 0.9045
vn 0.0000 0.7071 0.7071
vn 0.0000 1.0000 -0.0000
vn 0.7071 0.7071 -0.0000
vn 0.5774 0.5774 0.5774
vn 0.0000 0.7071 -0.7071
vn 0.3015 0.3015 -0.9045
vn 0.5774 0.5774 -0.5774
vn 0.0000 0.0000 1.0000
vn 0.7071 0.0000 0.7071
vn 1.0000 0.0000 -0.0000
vn 0.7071 0.0000 -0.7071
vn 0.0000 0.0000 -1.0000
vn -0.5774 -0.5774 -0.5774
vn -0.7071 -0.7071 -0.0000
vn -1.0000 0.0000 -0.0000
vn -0.7071 0.0000 -0.7071
vn -0.5774 -0.5774 0.5774
vn -0.7071 0.0000 0.7071
vn -0.7071 0.7071 -0.0000
vn -0.5774 0.5774 0.5774
vn -0.5774 0.5774 -0.5774
# 28 vertex normals

vt 1.0000 0.0000 0.0000
vt 1.0000 0.2500 0.0000
vt 0.8000 0.2500 0.0000
vt 0.8000 0.0000 0.0000
vt 0.6000 0.2500 0.0000
vt 0.6000 0.0000 0.0000
vt 0.4000 0.2500 0.0000
vt 0.4000 0.0000 0.0000
vt 0.2000 0.2500 0.0000
vt 0.2000 0.0000 0.0000
vt 0.0000 0.2500 0.0000
vt 0.0000 0.0000 0.0000
vt 1.0000 0.5000 0.0000
vt 0.8000 0.5000 0.0000
vt 0.6000 0.5000 0.0000
vt 0.4000 0.5000 0.0000
vt 0.2000 0.5000 0.0000
vt 0.0000 0.5000 0.0000
vt 1.0000 0.7500 0.0000
vt 0.8000 0.7500 0.0000
vt 0.6000 0.7500 0.0000
vt 0.4000 0.7500 0.0000
vt 0.2000 0.7500 0.0000
vt 0.0000 0.7500 0.0000
vt 1.0000 1.0000 0.0000
vt 0.8000 1.0000 0.0000
vt 0.6000 1.0000 0.0000
vt 0.4000 1.0000 0.0000
vt 0.2000 1.0000 0.0000
vt 0.0000 1.0000 0.0000
vt 0.2500 0.0000 0.0000
vt 0.2500 0.5000 0.0000
vt 0.5000 0.0000 0.0000
vt 0.5000 0.5000 0.0000
vt 0.7500 0.0000 0.0000
vt 0.7500 0.5000 0.0000
vt 0.2500 1.0000 0.0000
vt 0.5000 1.0000 0.0000
vt 0.7500 1.0000 0.0000
# 39 texture coords

o Box001
g Box001
usemtl wire_057008136
s 2
f 1/1/1 2/2/2 3/3/2 4/4/1 
f 4/4/1 3/3/2 5/5/2 6/6/1 
f 6/6/1 5/5/2 7/7/2 8/8/1 
f 8/8/1 7/7/2 9/9/2 10/10/1 
f 10/10/1 9/9/2 11/11/3 12/12/4 
f 2/2/2 13/13/2 14/14/2 3/3/2 
f 3/3/2 14/14/2 15/15/2 5/5/2 
f 5/5/2 15/15/2 16/16/2 7/7/2 
f 7/7/2 16/16/2 17/17/2 9/9/2 
f 9/9/2 17/17/2 18/18/3 11/11/3 
f 13/13/2 19/19/2 20/20/2 14/14/2 
f 14/14/2 20/20/2 21/21/2 15/15/2 
f 15/15/2 21/21/2 22/22/2 16/16/2 
f 16/16/2 22/22/2 23/23/2 17/17/2 
f 17/17/2 23/23/2 24/24/3 18/18/3 
f 19/19/2 25/25/5 26/26/5 20/20/2 
f 20/20/2 26/26/5 27/27/5 21/21/2 
f 21/21/2 27/27/5 28/28/5 22/22/2 
f 22/22/2 28/28/5 29/29/5 23/23/2 
f 23/23/2 29/29/5 30/30/6 24/24/3 
s 4
f 31/12/7 32/10/8 33/9/9 34/11/10 
f 32/10/8 35/8/8 36/7/9 33/9/9 
f 35/8/8 37/6/8 38/5/9 36/7/9 
f 37/6/8 39/4/8 40/3/9 38/5/9 
f 39/4/8 41/1/11 42/2/10 40/3/9 
f 34/11/10 33/9/9 43/17/9 44/18/10 
f 33/9/9 36/7/9 45/16/9 43/17/9 
f 36/7/9 38/5/9 46/15/9 45/16/9 
f 38/5/9 40/3/9 47/14/9 46/15/9 
f 40/3/9 42/2/10 48/13/10 47/14/9 
f 44/18/10 43/17/9 49/23/9 50/24/10 
f 43/17/9 45/16/9 51/22/9 49/23/9 
f 45/16/9 46/15/9 52/21/9 51/22/9 
f 46/15/9 47/14/9 53/20/9 52/21/9 
f 47/14/9 48/13/10 54/19/10 53/20/9 
f 50/24/10 49/23/9 55/29/12 56/30/13 
f 49/23/9 51/22/9 57/28/12 55/29/12 
f 51/22/9 52/21/9 58/27/12 57/28/12 
f 52/21/9 53/20/9 59/26/12 58/27/12 
f 53/20/9 54/19/10 60/25/14 59/26/12 
s 8
f 1/12/1 4/10/1 61/17/15 62/18/15 
f 4/10/1 6/8/1 63/16/15 61/17/15 
f 6/8/1 8/6/1 64/15/15 63/16/15 
f 8/6/1 10/4/1 65/14/15 64/15/15 
f 10/4/1 12/1/4 66/13/16 65/14/15 
f 62/18/15 61/17/15 32/29/8 31/30/7 
f 61/17/15 63/16/15 35/28/8 32/29/8 
f 63/16/15 64/15/15 37/27/8 35/28/8 
f 64/15/15 65/14/15 39/26/8 37/27/8 
f 65/14/15 66/13/16 41/25/11 39/26/8 
s 16
f 12/12/4 11/31/3 67/32/17 66/18/16 
f 11/31/3 18/33/3 68/34/17 67/32/17 
f 18/33/3 24/35/3 69/36/17 68/34/17 
f 24/35/3 30/1/6 70/13/18 69/36/17 
f 66/18/16 67/32/17 42/37/10 41/30/11 
f 67/32/17 68/34/17 48/38/10 42/37/10 
f 68/34/17 69/36/17 54/39/10 48/38/10 
f 69/36/17 70/13/18 60/25/14 54/39/10 
s 32
f 30/12/6 29/10/5 71/17/19 70/18/18 
f 29/10/5 28/8/5 72/16/19 71/17/19 
f 28/8/5 27/6/5 73/15/19 72/16/19 
f 27/6/5 26/4/5 74/14/19 73/15/19 
f 26/4/5 25/1/5 75/13/19 74/14/19 
f 70/18/18 71/17/19 59/29/12 60/30/14 
f 71/17/19 72/16/19 58/28/12 59/29/12 
f 72/16/19 73/15/19 57/27/12 58/28/12 
f 73/15/19 74/14/19 55/26/12 57/27/12 
f 74/14/19 75/13/19 56/25/13 55/26/12 
s 64
f 76/12/20 77/31/21 78/32/22 79/18/23 
f 77/31/21 80/33/21 81/34/22 78/32/22 
f 80/33/21 82/35/21 83/36/22 81/34/22 
f 82/35/21 84/1/24 85/13/25 83/36/22 
f 79/18/23 78/32/22 86/37/22 87/30/23 
f 78/32/22 81/34/22 88/38/22 86/37/22 
f 81/34/22 83/36/22 89/39/22 88/38/22 
f 83/36/22 85/13/25 90/25/25 89/39/22 
s off
f 2/35/2 1/1/1 84/1/24 82/35/21 
f 1/1/1 62/13/15 85/13/25 84/1/24 
f 62/13/15 31/25/7 90/25/25 85/13/25 
f 91/25/11 92/39/10 93/39/26 94/25/27 
f 92/39/10 95/38/10 96/38/26 93/39/26 
f 95/38/10 97/37/10 98/37/26 96/38/26 
f 97/37/10 99/30/14 100/30/28 98/37/26 
f 56/30/13 75/18/19 79/18/23 87/30/23 
f 75/18/19 25/12/5 76/12/20 79/18/23 
f 25/12/5 19/31/2 77/31/21 76/12/20 
f 19/31/2 13/33/2 80/33/21 77/31/21 
f 13/33/2 2/35/2 82/35/21 80/33/21 
f 31/25/7 34/39/10 92/39/10 91/25/11 
f 34/39/10 44/38/10 95/38/10 92/39/10 
f 44/38/10 50/37/10 97/37/10 95/38/10 
f 50/37/10 56/30/13 99/30/14 97/37/10 
f 56/30/13 87/30/23 100/30/28 99/30/14 
f 87/30/23 86/37/22 98/37/26 100/30/28 
f 86/37/22 88/38/22 96/38/26 98/37/26 
f 88/38/22 89/39/22 93/39/26 96/38/26 
f 89/39/22 90/25/25 94/25/27 93/39/26 
f 90/25/25 31/25/7 91/25/11 94/25/27 
# 98 polygons

