# 3ds Max Wavefront OBJ Exporter v0.99 - (c)2007 guruware
# File Created: 13.04.2023 09:38:19

mtllib Three.mtl

#
# object Box001
#

v  -38.1455 8.7107 66.7597
v  -38.1455 16.7280 42.2907
v  -33.1301 16.7280 42.2907
v  -33.1301 8.7107 66.7597
v  -28.1147 16.7280 42.2907
v  -28.1147 8.7107 66.7597
v  -23.0993 16.7280 42.2907
v  -23.0993 8.7107 66.7597
v  -18.0838 16.7280 42.2907
v  -18.0838 8.7107 66.7597
v  -13.0684 16.7280 42.2907
v  -13.0684 8.7107 66.7597
v  -38.1455 24.7454 17.8218
v  -33.1301 24.7454 17.8218
v  -28.1147 24.7454 17.8218
v  -23.0993 24.7454 17.8218
v  -18.0838 24.7454 17.8218
v  -13.0684 24.7454 17.8218
v  -38.1455 32.7627 -6.6472
v  -33.1301 32.7627 -6.6472
v  -28.1147 32.7627 -6.6472
v  -23.0993 32.7627 -6.6472
v  -18.0838 32.7627 -6.6472
v  -13.0684 32.7627 -6.6472
v  -38.1455 40.7800 -31.1161
v  -33.1301 40.7800 -31.1161
v  -28.1147 40.7800 -31.1161
v  -23.0993 40.7800 -31.1161
v  -18.0838 40.7800 -31.1161
v  -13.0684 40.7800 -31.1161
v  -38.1455 24.2447 71.8494
v  -33.1301 24.2447 71.8494
v  -33.1301 32.2620 47.3805
v  -38.1455 32.2620 47.3805
v  -28.1147 24.2447 71.8494
v  -28.1147 32.2620 47.3805
v  -23.0993 24.2447 71.8494
v  -23.0993 32.2620 47.3805
v  -18.0838 24.2447 71.8494
v  -18.0838 32.2620 47.3805
v  -13.0684 24.2447 71.8494
v  -13.0684 32.2620 47.3805
v  -33.1301 40.2793 22.9115
v  -38.1455 40.2793 22.9115
v  -28.1147 40.2793 22.9115
v  -23.0993 40.2793 22.9115
v  -18.0838 40.2793 22.9115
v  -13.0684 40.2793 22.9115
v  -33.1301 48.2967 -1.5574
v  -38.1455 48.2967 -1.5574
v  -28.1147 48.2967 -1.5574
v  -23.0993 48.2967 -1.5574
v  -18.0838 48.2967 -1.5574
v  -13.0684 48.2967 -1.5574
v  -33.1301 56.3140 -26.0264
v  -38.1455 56.3140 -26.0264
v  -28.1147 56.3140 -26.0264
v  -23.0993 56.3140 -26.0264
v  -18.0838 56.3140 -26.0264
v  -13.0684 56.3140 -26.0264
v  -33.1301 16.4777 69.3046
v  -38.1455 16.4777 69.3046
v  -28.1147 16.4777 69.3046
v  -23.0993 16.4777 69.3046
v  -18.0838 16.4777 69.3046
v  -13.0684 16.4777 69.3046
v  -13.0684 24.4950 44.8356
v  -13.0684 32.5124 20.3667
v  -13.0684 40.5297 -4.1023
v  -13.0684 48.5470 -28.5712
v  -18.0838 48.5470 -28.5712
v  -23.0993 48.5470 -28.5712
v  -28.1147 48.5470 -28.5712
v  -33.1301 48.5470 -28.5712
v  -38.1455 48.5470 -28.5712
v  -38.1455 40.5297 -4.1023
v  -38.1455 32.5124 20.3667
v  -38.1455 24.4950 44.8356
# 78 vertices

vn -0.5774 -0.7284 0.3689
vn -0.7071 -0.6720 -0.2202
vn 0.0000 -0.9503 -0.3114
vn 0.0000 -0.8921 0.4518
vn 0.7071 -0.6720 -0.2202
vn 0.5774 -0.7284 0.3689
vn -0.5774 -0.3689 -0.7284
vn 0.0000 -0.4518 -0.8921
vn 0.5774 -0.3689 -0.7284
vn -0.5774 0.3689 0.7284
vn 0.0000 0.4518 0.8921
vn 0.0000 0.9503 0.3114
vn -0.7071 0.6720 0.2202
vn 0.5774 0.3689 0.7284
vn 0.7071 0.6720 0.2202
vn 0.0000 0.8921 -0.4518
vn -0.5774 0.7284 -0.3689
vn 0.5774 0.7284 -0.3689
vn 0.0000 -0.3114 0.9503
vn -0.7071 -0.2202 0.6720
vn 0.7071 -0.2202 0.6720
vn 1.0000 0.0000 -0.0000
vn 0.7071 0.2202 -0.6720
vn 0.0000 0.3114 -0.9503
vn -0.7071 0.2202 -0.6720
vn -1.0000 0.0000 -0.0000
# 26 vertex normals

vt 1.0000 0.0000 0.0000
vt 1.0000 0.2500 0.0000
vt 0.8000 0.2500 0.0000
vt 0.8000 0.0000 0.0000
vt 0.6000 0.2500 0.0000
vt 0.6000 0.0000 0.0000
vt 0.4000 0.2500 0.0000
vt 0.4000 0.0000 0.0000
vt 0.2000 0.2500 0.0000
vt 0.2000 0.0000 0.0000
vt 0.0000 0.2500 0.0000
vt 0.0000 0.0000 0.0000
vt 1.0000 0.5000 0.0000
vt 0.8000 0.5000 0.0000
vt 0.6000 0.5000 0.0000
vt 0.4000 0.5000 0.0000
vt 0.2000 0.5000 0.0000
vt 0.0000 0.5000 0.0000
vt 1.0000 0.7500 0.0000
vt 0.8000 0.7500 0.0000
vt 0.6000 0.7500 0.0000
vt 0.4000 0.7500 0.0000
vt 0.2000 0.7500 0.0000
vt 0.0000 0.7500 0.0000
vt 1.0000 1.0000 0.0000
vt 0.8000 1.0000 0.0000
vt 0.6000 1.0000 0.0000
vt 0.4000 1.0000 0.0000
vt 0.2000 1.0000 0.0000
vt 0.0000 1.0000 0.0000
vt 0.2500 0.0000 0.0000
vt 0.2500 0.5000 0.0000
vt 0.5000 0.0000 0.0000
vt 0.5000 0.5000 0.0000
vt 0.7500 0.0000 0.0000
vt 0.7500 0.5000 0.0000
vt 0.2500 1.0000 0.0000
vt 0.5000 1.0000 0.0000
vt 0.7500 1.0000 0.0000
# 39 texture coords

o Box001
g Box001
usemtl wire_166229229
s 2
f 1/1/1 2/2/2 3/3/3 4/4/4 
f 4/4/4 3/3/3 5/5/3 6/6/4 
f 6/6/4 5/5/3 7/7/3 8/8/4 
f 8/8/4 7/7/3 9/9/3 10/10/4 
f 10/10/4 9/9/3 11/11/5 12/12/6 
f 2/2/2 13/13/2 14/14/3 3/3/3 
f 3/3/3 14/14/3 15/15/3 5/5/3 
f 5/5/3 15/15/3 16/16/3 7/7/3 
f 7/7/3 16/16/3 17/17/3 9/9/3 
f 9/9/3 17/17/3 18/18/5 11/11/5 
f 13/13/2 19/19/2 20/20/3 14/14/3 
f 14/14/3 20/20/3 21/21/3 15/15/3 
f 15/15/3 21/21/3 22/22/3 16/16/3 
f 16/16/3 22/22/3 23/23/3 17/17/3 
f 17/17/3 23/23/3 24/24/5 18/18/5 
f 19/19/2 25/25/7 26/26/8 20/20/3 
f 20/20/3 26/26/8 27/27/8 21/21/3 
f 21/21/3 27/27/8 28/28/8 22/22/3 
f 22/22/3 28/28/8 29/29/8 23/23/3 
f 23/23/3 29/29/8 30/30/9 24/24/5 
s 4
f 31/12/10 32/10/11 33/9/12 34/11/13 
f 32/10/11 35/8/11 36/7/12 33/9/12 
f 35/8/11 37/6/11 38/5/12 36/7/12 
f 37/6/11 39/4/11 40/3/12 38/5/12 
f 39/4/11 41/1/14 42/2/15 40/3/12 
f 34/11/13 33/9/12 43/17/12 44/18/13 
f 33/9/12 36/7/12 45/16/12 43/17/12 
f 36/7/12 38/5/12 46/15/12 45/16/12 
f 38/5/12 40/3/12 47/14/12 46/15/12 
f 40/3/12 42/2/15 48/13/15 47/14/12 
f 44/18/13 43/17/12 49/23/12 50/24/13 
f 43/17/12 45/16/12 51/22/12 49/23/12 
f 45/16/12 46/15/12 52/21/12 51/22/12 
f 46/15/12 47/14/12 53/20/12 52/21/12 
f 47/14/12 48/13/15 54/19/15 53/20/12 
f 50/24/13 49/23/12 55/29/16 56/30/17 
f 49/23/12 51/22/12 57/28/16 55/29/16 
f 51/22/12 52/21/12 58/27/16 57/28/16 
f 52/21/12 53/20/12 59/26/16 58/27/16 
f 53/20/12 54/19/15 60/25/18 59/26/16 
s 8
f 1/12/1 4/10/4 61/17/19 62/18/20 
f 4/10/4 6/8/4 63/16/19 61/17/19 
f 6/8/4 8/6/4 64/15/19 63/16/19 
f 8/6/4 10/4/4 65/14/19 64/15/19 
f 10/4/4 12/1/6 66/13/21 65/14/19 
f 62/18/20 61/17/19 32/29/11 31/30/10 
f 61/17/19 63/16/19 35/28/11 32/29/11 
f 63/16/19 64/15/19 37/27/11 35/28/11 
f 64/15/19 65/14/19 39/26/11 37/27/11 
f 65/14/19 66/13/21 41/25/14 39/26/11 
s 16
f 12/12/6 11/31/5 67/32/22 66/18/21 
f 11/31/5 18/33/5 68/34/22 67/32/22 
f 18/33/5 24/35/5 69/36/22 68/34/22 
f 24/35/5 30/1/9 70/13/23 69/36/22 
f 66/18/21 67/32/22 42/37/15 41/30/14 
f 67/32/22 68/34/22 48/38/15 42/37/15 
f 68/34/22 69/36/22 54/39/15 48/38/15 
f 69/36/22 70/13/23 60/25/18 54/39/15 
s 32
f 30/12/9 29/10/8 71/17/24 70/18/23 
f 29/10/8 28/8/8 72/16/24 71/17/24 
f 28/8/8 27/6/8 73/15/24 72/16/24 
f 27/6/8 26/4/8 74/14/24 73/15/24 
f 26/4/8 25/1/7 75/13/25 74/14/24 
f 70/18/23 71/17/24 59/29/16 60/30/18 
f 71/17/24 72/16/24 58/28/16 59/29/16 
f 72/16/24 73/15/24 57/27/16 58/28/16 
f 73/15/24 74/14/24 55/26/16 57/27/16 
f 74/14/24 75/13/25 56/25/17 55/26/16 
s 64
f 25/12/7 19/31/2 76/32/26 75/18/25 
f 19/31/2 13/33/2 77/34/26 76/32/26 
f 13/33/2 2/35/2 78/36/26 77/34/26 
f 2/35/2 1/1/1 62/13/20 78/36/26 
f 75/18/25 76/32/26 50/37/13 56/30/17 
f 76/32/26 77/34/26 44/38/13 50/37/13 
f 77/34/26 78/36/26 34/39/13 44/38/13 
f 78/36/26 62/13/20 31/25/10 34/39/13 
# 76 polygons

#
# object Box002
#

v  -37.6830 0.0000 -5.7025
v  -37.6830 0.0000 -12.1031
v  -33.4027 0.0000 -12.1031
v  -33.4027 0.0000 -5.7025
v  -29.1225 0.0000 -12.1031
v  -29.1225 0.0000 -5.7025
v  -24.8423 0.0000 -12.1031
v  -24.8423 0.0000 -5.7025
v  -20.5621 0.0000 -12.1031
v  -20.5621 0.0000 -5.7025
v  -16.2818 0.0000 -12.1031
v  -16.2818 0.0000 -5.7025
v  -37.6830 0.0000 -18.5037
v  -33.4027 0.0000 -18.5037
v  -29.1225 0.0000 -18.5037
v  -24.8423 0.0000 -18.5037
v  -20.5621 0.0000 -18.5037
v  -16.2818 0.0000 -18.5037
v  -37.6830 0.0000 -24.9044
v  -33.4027 0.0000 -24.9044
v  -29.1225 0.0000 -24.9044
v  -24.8423 0.0000 -24.9044
v  -20.5621 0.0000 -24.9044
v  -16.2818 0.0000 -24.9044
v  -37.6830 0.0000 -31.3050
v  -33.4027 0.0000 -31.3050
v  -29.1225 0.0000 -31.3050
v  -24.8423 0.0000 -31.3050
v  -20.5621 0.0000 -31.3050
v  -16.2818 0.0000 -31.3050
v  -37.6830 32.3729 -5.7025
v  -33.4027 32.3729 -5.7025
v  -33.4027 32.3729 -12.1031
v  -37.6830 32.3729 -12.1031
v  -29.1225 32.3729 -5.7025
v  -29.1225 32.3729 -12.1031
v  -24.8423 32.3729 -5.7025
v  -24.8423 32.3729 -12.1031
v  -20.5621 32.3729 -5.7025
v  -20.5621 32.3729 -12.1031
v  -16.2818 32.3729 -5.7025
v  -16.2818 32.3729 -12.1031
v  -33.4027 32.3729 -18.5037
v  -37.6830 32.3729 -18.5037
v  -29.1225 32.3729 -18.5037
v  -24.8423 32.3729 -18.5037
v  -20.5621 32.3729 -18.5037
v  -16.2818 32.3729 -18.5037
v  -33.4027 32.3729 -24.9044
v  -37.6830 32.3729 -24.9044
v  -29.1225 32.3729 -24.9044
v  -24.8423 32.3729 -24.9044
v  -20.5621 32.3729 -24.9044
v  -16.2818 32.3729 -24.9044
v  -33.4027 32.3729 -31.3050
v  -37.6830 32.3729 -31.3050
v  -29.1225 32.3729 -31.3050
v  -24.8423 32.3729 -31.3050
v  -20.5621 32.3729 -31.3050
v  -16.2818 32.3729 -31.3050
v  -33.4027 16.1864 -5.7025
v  -37.6830 16.1864 -5.7025
v  -29.1225 16.1864 -5.7025
v  -24.8423 16.1864 -5.7025
v  -20.5621 16.1864 -5.7025
v  -16.2818 16.1864 -5.7025
v  -16.2818 16.1864 -12.1031
v  -16.2818 16.1864 -18.5037
v  -16.2818 16.1864 -24.9044
v  -16.2818 16.1864 -31.3050
v  -20.5621 16.1864 -31.3050
v  -24.8423 16.1864 -31.3050
v  -29.1225 16.1864 -31.3050
v  -33.4027 16.1864 -31.3050
v  -37.6830 16.1864 -31.3050
v  -37.6830 16.1864 -24.9044
v  -37.6830 16.1864 -18.5037
v  -37.6830 16.1864 -12.1031
# 78 vertices

vn -0.5774 -0.5774 0.5774
vn -0.7071 -0.7071 -0.0000
vn 0.0000 -1.0000 -0.0000
vn 0.0000 -0.7071 0.7071
vn 0.7071 -0.7071 -0.0000
vn 0.5774 -0.5774 0.5774
vn -0.5774 -0.5774 -0.5774
vn 0.0000 -0.7071 -0.7071
vn 0.5774 -0.5774 -0.5774
vn -0.5774 0.5774 0.5774
vn 0.0000 0.7071 0.7071
vn 0.0000 1.0000 -0.0000
vn -0.7071 0.7071 -0.0000
vn 0.5774 0.5774 0.5774
vn 0.7071 0.7071 -0.0000
vn 0.0000 0.7071 -0.7071
vn -0.5774 0.5774 -0.5774
vn 0.5774 0.5774 -0.5774
vn 0.0000 0.0000 1.0000
vn -0.7071 0.0000 0.7071
vn 0.7071 0.0000 0.7071
vn 1.0000 0.0000 -0.0000
vn 0.7071 0.0000 -0.7071
vn 0.0000 0.0000 -1.0000
vn -0.7071 0.0000 -0.7071
vn -1.0000 0.0000 -0.0000
# 26 vertex normals

vt 1.0000 0.0000 0.0000
vt 1.0000 0.2500 0.0000
vt 0.8000 0.2500 0.0000
vt 0.8000 0.0000 0.0000
vt 0.6000 0.2500 0.0000
vt 0.6000 0.0000 0.0000
vt 0.4000 0.2500 0.0000
vt 0.4000 0.0000 0.0000
vt 0.2000 0.2500 0.0000
vt 0.2000 0.0000 0.0000
vt 0.0000 0.2500 0.0000
vt 0.0000 0.0000 0.0000
vt 1.0000 0.5000 0.0000
vt 0.8000 0.5000 0.0000
vt 0.6000 0.5000 0.0000
vt 0.4000 0.5000 0.0000
vt 0.2000 0.5000 0.0000
vt 0.0000 0.5000 0.0000
vt 1.0000 0.7500 0.0000
vt 0.8000 0.7500 0.0000
vt 0.6000 0.7500 0.0000
vt 0.4000 0.7500 0.0000
vt 0.2000 0.7500 0.0000
vt 0.0000 0.7500 0.0000
vt 1.0000 1.0000 0.0000
vt 0.8000 1.0000 0.0000
vt 0.6000 1.0000 0.0000
vt 0.4000 1.0000 0.0000
vt 0.2000 1.0000 0.0000
vt 0.0000 1.0000 0.0000
vt 0.2500 0.0000 0.0000
vt 0.2500 0.5000 0.0000
vt 0.5000 0.0000 0.0000
vt 0.5000 0.5000 0.0000
vt 0.7500 0.0000 0.0000
vt 0.7500 0.5000 0.0000
vt 0.2500 1.0000 0.0000
vt 0.5000 1.0000 0.0000
vt 0.7500 1.0000 0.0000
# 39 texture coords

o Box002
g Box002
usemtl wire_177027088
s 2
f 79/40/27 80/41/28 81/42/29 82/43/30 
f 82/43/30 81/42/29 83/44/29 84/45/30 
f 84/45/30 83/44/29 85/46/29 86/47/30 
f 86/47/30 85/46/29 87/48/29 88/49/30 
f 88/49/30 87/48/29 89/50/31 90/51/32 
f 80/41/28 91/52/28 92/53/29 81/42/29 
f 81/42/29 92/53/29 93/54/29 83/44/29 
f 83/44/29 93/54/29 94/55/29 85/46/29 
f 85/46/29 94/55/29 95/56/29 87/48/29 
f 87/48/29 95/56/29 96/57/31 89/50/31 
f 91/52/28 97/58/28 98/59/29 92/53/29 
f 92/53/29 98/59/29 99/60/29 93/54/29 
f 93/54/29 99/60/29 100/61/29 94/55/29 
f 94/55/29 100/61/29 101/62/29 95/56/29 
f 95/56/29 101/62/29 102/63/31 96/57/31 
f 97/58/28 103/64/33 104/65/34 98/59/29 
f 98/59/29 104/65/34 105/66/34 99/60/29 
f 99/60/29 105/66/34 106/67/34 100/61/29 
f 100/61/29 106/67/34 107/68/34 101/62/29 
f 101/62/29 107/68/34 108/69/35 102/63/31 
s 4
f 109/51/36 110/49/37 111/48/38 112/50/39 
f 110/49/37 113/47/37 114/46/38 111/48/38 
f 113/47/37 115/45/37 116/44/38 114/46/38 
f 115/45/37 117/43/37 118/42/38 116/44/38 
f 117/43/37 119/40/40 120/41/41 118/42/38 
f 112/50/39 111/48/38 121/56/38 122/57/39 
f 111/48/38 114/46/38 123/55/38 121/56/38 
f 114/46/38 116/44/38 124/54/38 123/55/38 
f 116/44/38 118/42/38 125/53/38 124/54/38 
f 118/42/38 120/41/41 126/52/41 125/53/38 
f 122/57/39 121/56/38 127/62/38 128/63/39 
f 121/56/38 123/55/38 129/61/38 127/62/38 
f 123/55/38 124/54/38 130/60/38 129/61/38 
f 124/54/38 125/53/38 131/59/38 130/60/38 
f 125/53/38 126/52/41 132/58/41 131/59/38 
f 128/63/39 127/62/38 133/68/42 134/69/43 
f 127/62/38 129/61/38 135/67/42 133/68/42 
f 129/61/38 130/60/38 136/66/42 135/67/42 
f 130/60/38 131/59/38 137/65/42 136/66/42 
f 131/59/38 132/58/41 138/64/44 137/65/42 
s 8
f 79/51/27 82/49/30 139/56/45 140/57/46 
f 82/49/30 84/47/30 141/55/45 139/56/45 
f 84/47/30 86/45/30 142/54/45 141/55/45 
f 86/45/30 88/43/30 143/53/45 142/54/45 
f 88/43/30 90/40/32 144/52/47 143/53/45 
f 140/57/46 139/56/45 110/68/37 109/69/36 
f 139/56/45 141/55/45 113/67/37 110/68/37 
f 141/55/45 142/54/45 115/66/37 113/67/37 
f 142/54/45 143/53/45 117/65/37 115/66/37 
f 143/53/45 144/52/47 119/64/40 117/65/37 
s 16
f 90/51/32 89/70/31 145/71/48 144/57/47 
f 89/70/31 96/72/31 146/73/48 145/71/48 
f 96/72/31 102/74/31 147/75/48 146/73/48 
f 102/74/31 108/40/35 148/52/49 147/75/48 
f 144/57/47 145/71/48 120/76/41 119/69/40 
f 145/71/48 146/73/48 126/77/41 120/76/41 
f 146/73/48 147/75/48 132/78/41 126/77/41 
f 147/75/48 148/52/49 138/64/44 132/78/41 
s 32
f 108/51/35 107/49/34 149/56/50 148/57/49 
f 107/49/34 106/47/34 150/55/50 149/56/50 
f 106/47/34 105/45/34 151/54/50 150/55/50 
f 105/45/34 104/43/34 152/53/50 151/54/50 
f 104/43/34 103/40/33 153/52/51 152/53/50 
f 148/57/49 149/56/50 137/68/42 138/69/44 
f 149/56/50 150/55/50 136/67/42 137/68/42 
f 150/55/50 151/54/50 135/66/42 136/67/42 
f 151/54/50 152/53/50 133/65/42 135/66/42 
f 152/53/50 153/52/51 134/64/43 133/65/42 
s 64
f 103/51/33 97/70/28 154/71/52 153/57/51 
f 97/70/28 91/72/28 155/73/52 154/71/52 
f 91/72/28 80/74/28 156/75/52 155/73/52 
f 80/74/28 79/40/27 140/52/46 156/75/52 
f 153/57/51 154/71/52 128/76/39 134/69/43 
f 154/71/52 155/73/52 122/77/39 128/76/39 
f 155/73/52 156/75/52 112/78/39 122/77/39 
f 156/75/52 140/52/46 109/64/36 112/78/39 
# 76 polygons

