# 3ds Max Wavefront OBJ Exporter v0.99 - (c)2007 guruware
# File Created: 20.04.2023 09:19:50

mtllib 13.mtl

#
# object Box001
#

v  -48.1957 208.6347 46.3258
v  -19.4030 208.6347 46.3258
v  -19.5984 208.6347 -9.3343
v  20.2496 208.6347 -9.7250
v  19.8590 208.6347 46.3258
v  49.4329 208.6347 46.3258
v  49.4329 208.6347 -49.4213
v  -48.1957 208.6347 -49.4213
v  20.9238 -0.0000 46.3258
v  49.4329 -0.0000 46.3258
v  49.4329 -0.0000 -49.4213
v  -48.1957 -0.0000 -49.4213
v  -48.1957 -0.0000 46.3258
v  -19.2035 -0.0000 46.3258
v  -21.5758 -0.0000 -11.9148
v  20.4118 -0.0000 -10.1693
# 16 vertices

vn -0.5774 0.5774 0.5774
vn 0.5781 0.5774 0.5765
vn 0.5784 -0.5840 0.5696
vn -0.5768 -0.5773 0.5779
vn -0.5813 0.5755 0.5752
vn 0.5774 0.5774 0.5774
vn 0.5774 0.5774 -0.5774
vn -0.5774 0.5774 -0.5774
vn -0.7026 -0.0039 0.7115
vn 0.7071 0.0000 0.7071
vn 0.7071 0.0000 -0.7071
vn -0.7071 0.0000 -0.7071
vn -0.7071 0.0000 0.7071
vn 0.7216 0.0008 0.6923
vn 0.7060 -0.0169 0.7080
vn -0.7182 -0.0022 0.6959
# 16 vertex normals

vt 0.0000 0.0000 0.0000
vt 0.2949 0.0000 0.0000
vt 0.2929 0.5813 0.0000
vt 0.7011 0.5854 0.0000
vt 0.6971 0.0000 0.0000
vt 1.0000 0.0000 0.0000
vt 1.0000 1.0000 0.0000
vt 0.0000 1.0000 0.0000
vt 0.7080 0.0000 0.0000
vt 0.6971 1.0000 0.0000
vt 0.2949 1.0000 0.0000
vt 0.2970 0.0000 0.0000
vt 0.7030 0.0000 0.0000
vt 1.0000 1.0000 1.0000
vt 0.2920 0.0000 0.0000
# 15 texture coords

o Box001
g Box001
usemtl wire_108008136
s 4
f 1/1/1 2/2/2 3/3/3 4/4/4 5/5/5 6/6/6 7/7/7 8/8/8 
s 8
f 9/9/9 10/6/10 6/7/6 5/10/5 
s 16
f 10/1/10 11/6/11 7/7/7 6/8/6 
s 32
f 11/1/11 12/6/12 8/7/8 7/8/7 
s 64
f 12/1/12 13/6/13 1/7/1 8/8/8 
s 8
f 2/11/2 1/8/1 13/1/13 14/12/14 
s off
f 3/3/3 2/2/2 14/13/14 15/14/15 
f 4/4/4 3/3/3 15/14/15 16/14/16 
f 16/14/16 9/15/9 5/5/5 4/4/4 
# 9 polygons

#
# object Plane001
#

v  -48.6707 209.2561 23.6606
v  -48.6707 209.2561 47.6362
v  -24.1990 209.2561 47.6362
v  -24.1990 209.2561 23.6606
v  -19.5984 209.2561 47.6362
v  -19.5984 209.2561 23.6606
v  24.7444 209.2561 23.6606
v  24.7444 209.2561 47.6362
v  49.2160 209.2561 47.6362
v  49.2160 209.2561 23.6606
v  -48.6707 209.2561 -0.3150
v  -24.1990 209.2561 -0.3150
v  -19.5984 209.2561 -0.3150
v  24.7444 209.2561 -0.3150
v  49.2160 209.2561 -0.3150
v  -48.6707 209.2561 -24.2906
v  -24.1990 209.2561 -24.2906
v  -19.7937 209.2561 -10.1157
v  0.2727 209.2561 -10.1157
v  0.2727 209.2561 -24.2906
v  24.7444 209.2561 -24.2906
v  49.2160 209.2561 -24.2906
v  -48.6707 209.2561 -48.2663
v  -24.1990 209.2561 -48.2663
v  0.2727 209.2561 -48.2663
v  24.7444 209.2561 -48.2663
v  49.2160 209.2561 -48.2663
v  19.8744 209.2561 47.6362
v  19.7691 209.2561 23.6606
v  19.6638 209.2561 -0.3150
v  19.4683 209.2561 -10.1157
# 31 vertices

vn 0.0000 1.0000 -0.0000
vn 0.0000 -1.0000 -0.0000
# 2 vertex normals

vt 0.0000 0.2500 0.0000
vt 0.0000 0.0000 0.0000
vt 0.2500 0.0000 0.0000
vt 0.2500 0.2500 0.0000
vt 0.2970 0.0000 0.0000
vt 0.2970 0.2500 0.0000
vt 0.7500 0.2500 0.0000
vt 0.7500 0.0000 0.0000
vt 1.0000 0.0000 0.0000
vt 1.0000 0.2500 0.0000
vt 0.0000 0.5000 0.0000
vt 0.2500 0.5000 0.0000
vt 0.2970 0.5000 0.0000
vt 0.7500 0.5000 0.0000
vt 1.0000 0.5000 0.0000
vt 0.0000 0.7500 0.0000
vt 0.2500 0.7500 0.0000
vt 0.2950 0.6022 0.0000
vt 0.5000 0.6022 0.0000
vt 0.5000 0.7500 0.0000
vt 0.7500 0.7500 0.0000
vt 1.0000 0.7500 0.0000
vt 0.0000 1.0000 0.0000
vt 0.2500 1.0000 0.0000
vt 0.5000 1.0000 0.0000
vt 0.7500 1.0000 0.0000
vt 1.0000 1.0000 0.0000
vt 0.7002 0.0000 0.0000
vt 0.6992 0.2500 0.0000
vt 0.6981 0.5000 0.0000
vt 0.6961 0.6022 0.0000
# 31 texture coords

o Plane001
g Plane001
usemtl wire_214229166
s 1
f 17/16/17 18/17/17 19/18/17 20/19/17 
f 20/19/17 19/18/17 21/20/17 22/21/17 
f 23/22/17 24/23/17 25/24/17 26/25/17 
f 27/26/17 17/16/17 20/19/17 28/27/17 
f 28/27/17 20/19/17 22/21/17 29/28/17 
f 30/29/17 23/22/17 26/25/17 31/30/17 
f 32/31/17 27/26/17 28/27/17 33/32/17 
f 33/32/17 28/27/17 29/28/17 34/33/18 35/34/17 36/35/17 
f 37/36/17 30/29/17 31/30/17 38/37/17 
f 39/38/17 32/31/17 33/32/17 40/39/17 
f 40/39/17 33/32/17 36/35/17 41/40/17 
f 41/40/17 36/35/17 37/36/17 42/41/17 
f 42/41/17 37/36/17 38/37/17 43/42/17 
f 44/43/17 24/23/17 23/22/17 45/44/17 
f 45/44/17 23/22/17 30/29/17 46/45/17 
f 46/45/17 30/29/17 37/36/17 36/35/17 35/34/17 47/46/18 
# 16 polygons

